<svg version="1.1" viewBox="0.0 0.0 160.0 160.0" fill="none" stroke="none" stroke-linecap="square" stroke-miterlimit="10" xmlns:xlink="http://www.w3.org/1999/xlink" xmlns="http://www.w3.org/2000/svg"><clipPath id="p.0"><path d="m0 0l160.0 0l0 160.0l-160.0 0l0 -160.0z" clip-rule="nonzero"/></clipPath><g clip-path="url(#p.0)"><path fill="#b6d7a8" d="m0 0l160.0 0l0 160.0l-160.0 0z" fill-rule="evenodd"/><path fill="#6aa84f" d="m10.223097 14.294102l0 0c0 -3.8211336 3.097641 -6.9187737 6.9187737 -6.9187737l45.69001 0c1.8349724 0 3.5947914 0.72894 4.892315 2.0264616c1.2975159 1.2975216 2.0264587 3.0573387 2.0264587 4.892312l0 27.674263c0 3.8211327 -3.097641 6.9187737 -6.9187737 6.9187737l-45.69001 0c-3.8211327 0 -6.9187737 -3.097641 -6.9187737 -6.9187737z" fill-rule="evenodd"/><path stroke="#000000" stroke-width="2.0" stroke-linejoin="round" stroke-linecap="butt" d="m10.223097 14.294102l0 0c0 -3.8211336 3.097641 -6.9187737 6.9187737 -6.9187737l45.69001 0c1.8349724 0 3.5947914 0.72894 4.892315 2.0264616c1.2975159 1.2975216 2.0264587 3.0573387 2.0264587 4.892312l0 27.674263c0 3.8211327 -3.097641 6.9187737 -6.9187737 6.9187737l-45.69001 0c-3.8211327 0 -6.9187737 -3.097641 -6.9187737 -6.9187737z" fill-rule="evenodd"/><path fill="#6aa84f" d="m16.060368 82.56182l0 0c0 -3.8211365 3.097641 -6.9187775 6.9187737 -6.9187775l45.69001 0c1.8349762 0 3.5947952 0.7289429 4.892311 2.0264664c1.2975235 1.2975159 2.0264664 3.057335 2.0264664 4.892311l0 27.674263c0 3.8211288 -3.097641 6.91877 -6.9187775 6.91877l-45.69001 0c-3.8211327 0 -6.9187737 -3.097641 -6.9187737 -6.91877z" fill-rule="evenodd"/><path stroke="#000000" stroke-width="2.0" stroke-linejoin="round" stroke-linecap="butt" d="m16.060368 82.56182l0 0c0 -3.8211365 3.097641 -6.9187775 6.9187737 -6.9187775l45.69001 0c1.8349762 0 3.5947952 0.7289429 4.892311 2.0264664c1.2975235 1.2975159 2.0264664 3.057335 2.0264664 4.892311l0 27.674263c0 3.8211288 -3.097641 6.91877 -6.9187775 6.91877l-45.69001 0c-3.8211327 0 -6.9187737 -3.097641 -6.9187737 -6.91877z" fill-rule="evenodd"/><path fill="#6aa84f" d="m83.16535 19.288853l0 0c0 -3.8211336 3.097641 -6.9187737 6.9187775 -6.9187737l45.69001 0c1.8349762 0 3.5947876 0.72894 4.8923187 2.0264616c1.2975159 1.2975216 2.0264587 3.0573397 2.0264587 4.892312l0 27.674263c0 3.8211327 -3.097641 6.9187737 -6.9187775 6.9187737l-45.69001 0c-3.8211365 0 -6.9187775 -3.097641 -6.9187775 -6.9187737z" fill-rule="evenodd"/><path stroke="#000000" stroke-width="2.0" stroke-linejoin="round" stroke-linecap="butt" d="m83.16535 19.288853l0 0c0 -3.8211336 3.097641 -6.9187737 6.9187775 -6.9187737l45.69001 0c1.8349762 0 3.5947876 0.72894 4.8923187 2.0264616c1.2975159 1.2975216 2.0264587 3.0573397 2.0264587 4.892312l0 27.674263c0 3.8211327 -3.097641 6.9187737 -6.9187775 6.9187737l-45.69001 0c-3.8211365 0 -6.9187775 -3.097641 -6.9187775 -6.9187737z" fill-rule="evenodd"/><path fill="#6aa84f" d="m83.16535 119.21011l0 0c0 -3.8211365 3.097641 -6.9187775 6.9187775 -6.9187775l45.69001 0c1.8349762 0 3.5947876 0.7289429 4.8923187 2.0264664c1.2975159 1.2975235 2.0264587 3.057335 2.0264587 4.892311l0 27.674255c0 3.8211365 -3.097641 6.9187775 -6.9187775 6.9187775l-45.69001 0c-3.8211365 0 -6.9187775 -3.097641 -6.9187775 -6.9187775z" fill-rule="evenodd"/><path stroke="#000000" stroke-width="2.0" stroke-linejoin="round" stroke-linecap="butt" d="m83.16535 119.21011l0 0c0 -3.8211365 3.097641 -6.9187775 6.9187775 -6.9187775l45.69001 0c1.8349762 0 3.5947876 0.7289429 4.8923187 2.0264664c1.2975159 1.2975235 2.0264587 3.057335 2.0264587 4.892311l0 27.674255c0 3.8211365 -3.097641 6.9187775 -6.9187775 6.9187775l-45.69001 0c-3.8211365 0 -6.9187775 -3.097641 -6.9187775 -6.9187775z" fill-rule="evenodd"/><path fill="#6aa84f" d="m67.514435 51.868904l0 0c0 -3.8211327 3.097641 -6.9187737 6.9187775 -6.9187737l45.69001 0c1.8349686 0 3.5947876 0.72893906 4.892311 2.0264626c1.2975235 1.2975235 2.0264587 3.0573387 2.0264587 4.892311l0 27.674263c0 3.8211365 -3.097641 6.9187775 -6.91877 6.9187775l-45.69001 0c-3.8211365 0 -6.9187775 -3.097641 -6.9187775 -6.9187775z" fill-rule="evenodd"/><path stroke="#000000" stroke-width="2.0" stroke-linejoin="round" stroke-linecap="butt" d="m67.514435 51.868904l0 0c0 -3.8211327 3.097641 -6.9187737 6.9187775 -6.9187737l45.69001 0c1.8349686 0 3.5947876 0.72893906 4.892311 2.0264626c1.2975235 1.2975235 2.0264587 3.0573387 2.0264587 4.892311l0 27.674263c0 3.8211365 -3.097641 6.9187775 -6.91877 6.9187775l-45.69001 0c-3.8211365 0 -6.9187775 -3.097641 -6.9187775 -6.9187775z" fill-rule="evenodd"/><path fill="#6aa84f" d="m38.50656 103.87678l0 0c0 -3.8211288 3.097641 -6.91877 6.9187737 -6.91877l45.690014 0c1.8349686 0 3.5947876 0.72893524 4.892311 2.0264587c1.2975235 1.2975235 2.0264587 3.0573425 2.0264587 4.892311l0 27.674263c0 3.8211365 -3.097641 6.9187775 -6.91877 6.9187775l-45.690014 0c-3.8211327 0 -6.9187737 -3.097641 -6.9187737 -6.9187775z" fill-rule="evenodd"/><path stroke="#000000" stroke-width="2.0" stroke-linejoin="round" stroke-linecap="butt" d="m38.50656 103.87678l0 0c0 -3.8211288 3.097641 -6.91877 6.9187737 -6.91877l45.690014 0c1.8349686 0 3.5947876 0.72893524 4.892311 2.0264587c1.2975235 1.2975235 2.0264587 3.0573425 2.0264587 4.892311l0 27.674263c0 3.8211365 -3.097641 6.9187775 -6.91877 6.9187775l-45.690014 0c-3.8211327 0 -6.9187737 -3.097641 -6.9187737 -6.9187775z" fill-rule="evenodd"/><path fill="#6aa84f" d="m17.918634 25.501451l0 0c0 -3.8211346 3.097641 -6.9187737 6.9187737 -6.9187737l45.69001 0c1.8349762 0 3.5947876 0.72893906 4.892311 2.0264606c1.2975235 1.2975216 2.0264664 3.0573387 2.0264664 4.892313l0 27.674265c0 3.8211327 -3.097641 6.9187737 -6.9187775 6.9187737l-45.69001 0c-3.8211327 0 -6.9187737 -3.097641 -6.9187737 -6.9187737z" fill-rule="evenodd"/><path stroke="#000000" stroke-width="2.0" stroke-linejoin="round" stroke-linecap="butt" d="m17.918634 25.501451l0 0c0 -3.8211346 3.097641 -6.9187737 6.9187737 -6.9187737l45.69001 0c1.8349762 0 3.5947876 0.72893906 4.892311 2.0264606c1.2975235 1.2975216 2.0264664 3.0573387 2.0264664 4.892313l0 27.674265c0 3.8211327 -3.097641 6.9187737 -6.9187775 6.9187737l-45.69001 0c-3.8211327 0 -6.9187737 -3.097641 -6.9187737 -6.9187737z" fill-rule="evenodd"/><path fill="#6aa84f" d="m59.007874 62.682415l18.724411 -35.559055l18.724411 35.559055z" fill-rule="evenodd"/><path stroke="#000000" stroke-width="2.0" stroke-linejoin="round" stroke-linecap="butt" d="m59.007874 62.682415l18.724411 -35.559055l18.724411 35.559055z" fill-rule="evenodd"/><path fill="#6aa84f" d="m103.174416 64.70082l38.299217 12.157486l-31.685043 24.69291z" fill-rule="evenodd"/><path stroke="#000000" stroke-width="2.0" stroke-linejoin="round" stroke-linecap="butt" d="m103.174416 64.70082l38.299217 12.157486l-31.685043 24.69291z" fill-rule="evenodd"/><path fill="#6aa84f" d="m101.37733 108.20298l-37.700783 -13.968498l32.850395 -23.16536z" fill-rule="evenodd"/><path stroke="#000000" stroke-width="2.0" stroke-linejoin="round" stroke-linecap="butt" d="m101.37733 108.20298l-37.700783 -13.968498l32.850395 -23.16536z" fill-rule="evenodd"/><path fill="#6aa84f" d="m14.664715 67.22688l34.834644 -20.031498l-3.212597 40.062992z" fill-rule="evenodd"/><path stroke="#000000" stroke-width="2.0" stroke-linejoin="round" stroke-linecap="butt" d="m14.664715 67.22688l34.834644 -20.031498l-3.212597 40.062992z" fill-rule="evenodd"/><path fill="#6aa84f" d="m50.991688 86.46203l-7.984253 -39.401573l36.992123 15.716537z" fill-rule="evenodd"/><path stroke="#000000" stroke-width="2.0" stroke-linejoin="round" stroke-linecap="butt" d="m50.991688 86.46203l-7.984253 -39.401573l36.992123 15.716537z" fill-rule="evenodd"/><path fill="#6aa84f" d="m21.855808 136.47l37.842518 -13.559059l-10.22047 38.850395z" fill-rule="evenodd"/><path stroke="#000000" stroke-width="2.0" stroke-linejoin="round" stroke-linecap="butt" d="m21.855808 136.47l37.842518 -13.559059l-10.22047 38.850395z" fill-rule="evenodd"/><path fill="#6aa84f" d="m136.44087 157.59874l-15.6377945 -37.007874l39.354332 8.031494z" fill-rule="evenodd"/><path stroke="#000000" stroke-width="2.0" stroke-linejoin="round" stroke-linecap="butt" d="m136.44087 157.59874l-15.6377945 -37.007874l39.354332 8.031494z" fill-rule="evenodd"/><path fill="#6aa84f" d="m111.778694 15.973021l39.65354 6.566929l-27.874008 28.992125z" fill-rule="evenodd"/><path stroke="#000000" stroke-width="2.0" stroke-linejoin="round" stroke-linecap="butt" d="m111.778694 15.973021l39.65354 6.566929l-27.874008 28.992125z" fill-rule="evenodd"/><path fill="#6aa84f" d="m5.5249343 37.28609l18.72441 -35.559055l18.724411 35.559055z" fill-rule="evenodd"/><path stroke="#000000" stroke-width="2.0" stroke-linejoin="round" stroke-linecap="butt" d="m5.5249343 37.28609l18.72441 -35.559055l18.724411 35.559055z" fill-rule="evenodd"/><path fill="#6aa84f" d="m91.8189 100.22572l0 0c0 -9.358398 8.383202 -16.944885 18.724403 -16.944885l0 0c10.341209 0 18.724411 7.586487 18.724411 16.944885l0 0c0 9.358398 -8.383202 16.944878 -18.724411 16.944878l0 0c-10.341202 0 -18.724403 -7.586479 -18.724403 -16.944878z" fill-rule="evenodd"/><path stroke="#000000" stroke-width="1.0" stroke-linejoin="round" stroke-linecap="butt" d="m91.8189 100.22572l0 0c0 -9.358398 8.383202 -16.944885 18.724403 -16.944885l0 0c10.341209 0 18.724411 7.586487 18.724411 16.944885l0 0c0 9.358398 -8.383202 16.944878 -18.724411 16.944878l0 0c-10.341202 0 -18.724403 -7.586479 -18.724403 -16.944878z" fill-rule="evenodd"/><path fill="#6aa84f" d="m107.33071 52.16273l0 0c0 -9.358402 8.383202 -16.944885 18.724403 -16.944885l0 0c10.341202 0 18.724411 7.586483 18.724411 16.944885l0 0c0 9.358398 -8.383209 16.944881 -18.724411 16.944881l0 0c-10.341202 0 -18.724403 -7.586483 -18.724403 -16.944881z" fill-rule="evenodd"/><path stroke="#000000" stroke-width="1.0" stroke-linejoin="round" stroke-linecap="butt" d="m107.33071 52.16273l0 0c0 -9.358402 8.383202 -16.944885 18.724403 -16.944885l0 0c10.341202 0 18.724411 7.586483 18.724411 16.944885l0 0c0 9.358398 -8.383209 16.944881 -18.724411 16.944881l0 0c-10.341202 0 -18.724403 -7.586483 -18.724403 -16.944881z" fill-rule="evenodd"/><path fill="#6aa84f" d="m17.918634 113.902885l0 0c0 -9.358398 8.3832035 -16.944878 18.72441 -16.944878l0 0c10.341206 0 18.724411 7.586479 18.724411 16.944878l0 0c0 9.358398 -8.383205 16.944878 -18.724411 16.944878l0 0c-10.341206 0 -18.72441 -7.586479 -18.72441 -16.944878z" fill-rule="evenodd"/><path stroke="#000000" stroke-width="1.0" stroke-linejoin="round" stroke-linecap="butt" d="m17.918634 113.902885l0 0c0 -9.358398 8.3832035 -16.944878 18.72441 -16.944878l0 0c10.341206 0 18.724411 7.586479 18.724411 16.944878l0 0c0 9.358398 -8.383205 16.944878 -18.724411 16.944878l0 0c-10.341206 0 -18.72441 -7.586479 -18.72441 -16.944878z" fill-rule="evenodd"/><path fill="#6aa84f" d="m54.37008 31.942257l0 0c0 -9.3584 8.383202 -16.944881 18.724411 -16.944881l0 0c10.341202 0 18.724411 7.586481 18.724411 16.944881l0 0c0 9.358398 -8.383209 16.944881 -18.724411 16.944881l0 0c-10.341209 0 -18.724411 -7.586483 -18.724411 -16.944881z" fill-rule="evenodd"/><path stroke="#000000" stroke-width="1.0" stroke-linejoin="round" stroke-linecap="butt" d="m54.37008 31.942257l0 0c0 -9.3584 8.383202 -16.944881 18.724411 -16.944881l0 0c10.341202 0 18.724411 7.586481 18.724411 16.944881l0 0c0 9.358398 -8.383209 16.944881 -18.724411 16.944881l0 0c-10.341209 0 -18.724411 -7.586483 -18.724411 -16.944881z" fill-rule="evenodd"/><path fill="#6aa84f" d="m1.4094489 56.464565l0 0c0 -9.358398 8.3832035 -16.944881 18.72441 -16.944881l0 0c10.341206 0 18.724411 7.586483 18.724411 16.944881l0 0c0 9.358402 -8.383205 16.944881 -18.724411 16.944881l0 0c-10.341206 0 -18.72441 -7.586479 -18.72441 -16.944881z" fill-rule="evenodd"/><path stroke="#000000" stroke-width="1.0" stroke-linejoin="round" stroke-linecap="butt" d="m1.4094489 56.464565l0 0c0 -9.358398 8.3832035 -16.944881 18.72441 -16.944881l0 0c10.341206 0 18.724411 7.586483 18.724411 16.944881l0 0c0 9.358402 -8.383205 16.944881 -18.724411 16.944881l0 0c-10.341206 0 -18.72441 -7.586479 -18.72441 -16.944881z" fill-rule="evenodd"/></g></svg>